name Run_30002_GRF.mot
datacolumns 19
datarows 25
range 2.494 2.518
endheader
time	     ground_force_vx	     ground_force_vy	     ground_force_vz	     ground_force_px	     ground_force_py	     ground_force_pz	   l_ground_force_vx	   l_ground_force_vy	   l_ground_force_vz	   l_ground_force_px	   l_ground_force_py	   l_ground_force_pz	     ground_torque_x	     ground_torque_y	     ground_torque_z	   l_ground_torque_x	   l_ground_torque_y	   l_ground_torque_z	
2.494	          0.00000000	          0.00000000	          0.00000000	          0.00000000	          0.00000000	          0.00000000	        146.62252800	       1120.81665000	        -11.84499200	          0.79337000	          0.00000000	         -0.35276900	          0.00000000	          0.00000000	          0.00000000	         -0.00000000	          7.32736100	         -0.00000000	
2.495	          0.00000000	          0.00000000	          0.00000000	          0.00000000	          0.00000000	          0.00000000	        148.60316500	       1103.61547900	        -12.55973800	          0.79106200	          0.00000000	         -0.35266900	          0.00000000	          0.00000000	          0.00000000	         -0.00000000	          7.48801900	         -0.00000000	
2.496	          0.00000000	          0.00000000	          0.00000000	          0.00000000	          0.00000000	          0.00000000	        150.49206500	       1086.37768600	        -13.25962200	          0.78874500	          0.00000000	         -0.35256900	          0.00000000	          0.00000000	          0.00000000	         -0.00000000	          7.64215400	         -0.00000000	
2.497	          0.00000000	          0.00000000	          0.00000000	          0.00000000	          0.00000000	          0.00000000	        152.28907800	       1069.11450200	        -13.94074100	          0.78642000	          0.00000000	         -0.35247000	          0.00000000	          0.00000000	          0.00000000	         -0.00000000	          7.78940100	         -0.00000000	
2.498	          0.00000000	          0.00000000	          0.00000000	          0.00000000	          0.00000000	          0.00000000	        153.99334700	       1051.83630400	        -14.59933900	          0.78408800	          0.00000000	         -0.35237100	          0.00000000	          0.00000000	          0.00000000	         -0.00000000	          7.92941800	         -0.00000000	
2.499	          0.00000000	          0.00000000	          0.00000000	          0.00000000	          0.00000000	          0.00000000	        155.60327100	       1034.55395500	        -15.23185100	          0.78174800	          0.00000000	         -0.35227200	          0.00000000	          0.00000000	          0.00000000	         -0.00000000	          8.06187900	         -0.00000000	
2.5	          0.00000000	          0.00000000	          0.00000000	          0.00000000	          0.00000000	          0.00000000	        157.11660800	       1017.27777100	        -15.83495300	          0.77940200	          0.00000000	         -0.35217200	          0.00000000	          0.00000000	          0.00000000	         -0.00000000	          8.18648000	         -0.00000000	
2.501	          0.00000000	          0.00000000	          0.00000000	          0.00000000	          0.00000000	          0.00000000	        158.53041100	       1000.01782200	        -16.40561100	          0.77705100	          0.00000000	         -0.35206900	          0.00000000	          0.00000000	          0.00000000	         -0.00000000	          8.30293700	         -0.00000000	
2.502	          0.00000000	          0.00000000	          0.00000000	          0.00000000	          0.00000000	          0.00000000	        159.84120200	        982.78393600	        -16.94112000	          0.77469500	          0.00000000	         -0.35196500	          0.00000000	          0.00000000	          0.00000000	         -0.00000000	          8.41098700	         -0.00000000	
2.503	          0.00000000	          0.00000000	          0.00000000	          0.00000000	          0.00000000	          0.00000000	        161.04507400	        965.58575400	        -17.43915600	          0.77233600	          0.00000000	         -0.35185700	          0.00000000	          0.00000000	          0.00000000	         -0.00000000	          8.51039300	         -0.00000000	
2.504	          0.00000000	          0.00000000	          0.00000000	          0.00000000	          0.00000000	          0.00000000	        162.13781700	        948.43237300	        -17.89778900	          0.76997600	          0.00000000	         -0.35174500	          0.00000000	          0.00000000	          0.00000000	         -0.00000000	          8.60094100	         -0.00000000	
2.505	          0.00000000	          0.00000000	          0.00000000	          0.00000000	          0.00000000	          0.00000000	        163.11515800	        931.33264200	        -18.31553500	          0.76761500	          0.00000000	         -0.35162900	          0.00000000	          0.00000000	          0.00000000	         -0.00000000	          8.68244000	         -0.00000000	
2.506	          0.00000000	          0.00000000	          0.00000000	          0.00000000	          0.00000000	          0.00000000	        163.97283900	        914.29504400	        -18.69135900	          0.76525600	          0.00000000	         -0.35150700	          0.00000000	          0.00000000	          0.00000000	         -0.00000000	          8.75472600	         -0.00000000	
2.507	          0.00000000	          0.00000000	          0.00000000	          0.00000000	          0.00000000	          0.00000000	        164.70681800	        897.32763700	        -19.02470000	          0.76290000	          0.00000000	         -0.35137900	          0.00000000	          0.00000000	          0.00000000	         -0.00000000	          8.81766200	         -0.00000000	
2.508	          0.00000000	          0.00000000	          0.00000000	          0.00000000	          0.00000000	          0.00000000	        165.31343100	        880.43804900	        -19.31547000	          0.76054900	          0.00000000	         -0.35124400	          0.00000000	          0.00000000	          0.00000000	         -0.00000000	          8.87113500	         -0.00000000	
2.509	          0.00000000	          0.00000000	          0.00000000	          0.00000000	          0.00000000	          0.00000000	        165.78949000	        863.63354500	        -19.56404900	          0.75820400	          0.00000000	         -0.35110300	          0.00000000	          0.00000000	          0.00000000	         -0.00000000	          8.91505700	         -0.00000000	
2.51	          0.00000000	          0.00000000	          0.00000000	          0.00000000	          0.00000000	          0.00000000	        166.13235500	        846.92095900	        -19.77127300	          0.75586800	          0.00000000	         -0.35095500	          0.00000000	          0.00000000	          0.00000000	         -0.00000000	          8.94936800	         -0.00000000	
2.511	          0.00000000	          0.00000000	          0.00000000	          0.00000000	          0.00000000	          0.00000000	        166.33999600	        830.30670200	        -19.93841600	          0.75354200	          0.00000000	         -0.35079900	          0.00000000	          0.00000000	          0.00000000	         -0.00000000	          8.97403600	         -0.00000000	
2.512	          0.00000000	          0.00000000	          0.00000000	          0.00000000	          0.00000000	          0.00000000	        166.41107200	        813.79687500	        -20.06715800	          0.75122800	          0.00000000	         -0.35063700	          0.00000000	          0.00000000	          0.00000000	         -0.00000000	          8.98905200	         -0.00000000	
2.513	          0.00000000	          0.00000000	          0.00000000	          0.00000000	          0.00000000	          0.00000000	        166.34487900	        797.39703400	        -20.15954400	          0.74892700	          0.00000000	         -0.35046800	          0.00000000	          0.00000000	          0.00000000	         -0.00000000	          8.99443200	         -0.00000000	
2.514	          0.00000000	          0.00000000	          0.00000000	          0.00000000	          0.00000000	          0.00000000	        166.14138800	        781.11242700	        -20.21794100	          0.74664200	          0.00000000	         -0.35029400	          0.00000000	          0.00000000	          0.00000000	         -0.00000000	          8.99022300	         -0.00000000	
2.515	          0.00000000	          0.00000000	          0.00000000	          0.00000000	          0.00000000	          0.00000000	        165.80117800	        764.94793700	        -20.24498200	          0.74437300	          0.00000000	         -0.35011400	          0.00000000	          0.00000000	          0.00000000	         -0.00000000	          8.97648900	         -0.00000000	
2.516	          0.00000000	          0.00000000	          0.00000000	          0.00000000	          0.00000000	          0.00000000	        165.32551600	        748.90783700	        -20.24351300	          0.74212100	          0.00000000	         -0.34993000	          0.00000000	          0.00000000	          0.00000000	         -0.00000000	          8.95332200	         -0.00000000	
2.517	          0.00000000	          0.00000000	          0.00000000	          0.00000000	          0.00000000	          0.00000000	        164.71620200	        732.99633800	        -20.21653000	          0.73988900	          0.00000000	         -0.34974300	          0.00000000	          0.00000000	          0.00000000	         -0.00000000	          8.92084000	         -0.00000000	
2.518	          0.00000000	          0.00000000	          0.00000000	          0.00000000	          0.00000000	          0.00000000	        163.97569300	        717.21710200	        -20.16710900	          0.73767500	          0.00000000	         -0.34955400	          0.00000000	          0.00000000	          0.00000000	         -0.00000000	          8.87917900	         -0.00000000	
